<?xml version="1.0" encoding="UTF-8"?>
<!DOCTYPE svg PUBLIC "-//W3C//DTD SVG 1.1//EN" "http://www.w3.org/Graphics/SVG/1.1/DTD/svg11.dtd">
<!-- Creator: CorelDRAW 2020 (64-Bit) -->
<svg xmlns="http://www.w3.org/2000/svg" xml:space="preserve" width="0.324339in" height="0.374886in" version="1.1" style="shape-rendering:geometricPrecision; text-rendering:geometricPrecision; image-rendering:optimizeQuality; fill-rule:evenodd; clip-rule:evenodd"
viewBox="0 0 2289.21 2645.98"
 xmlns:xlink="http://www.w3.org/1999/xlink"
 xmlns:xodm="http://www.corel.com/coreldraw/odm/2003">
 <defs>
  <style type="text/css">
   <![CDATA[
    .fil0 {fill:black}
   ]]>
  </style>
 </defs>
 <g id="Layer_x0020_1">
  <metadata id="CorelCorpID_0Corel-Layer"/>
  <g id="_2486999705728">
   <path class="fil0" d="M1231.72 18.51c9.78,55.6 79.95,-12.59 125.27,111.73 81.81,224.47 -67.61,543.11 -204.49,711.17 -31.29,38.43 -78.03,99.48 -112.23,129.24l-374.22 347.07c-117.32,100.01 -248.56,278.66 -305.08,415.48 -46.71,112.98 -74.53,291.99 -46.93,414.37 13.81,61.24 48.32,112.68 93.2,148.97 38.76,31.32 109.9,98.95 163.11,52.24 0.28,-24.09 -33.37,-39.85 -51.74,-53.19 -75.5,-54.77 -101.45,-128.35 -104.54,-220.75 -4.17,-126.05 17.23,-250.17 70.78,-361.05 56.71,-117.54 179.29,-283.85 278.41,-364.6 13.75,-11.2 44.68,-38.12 56.33,-50.41 28.4,-29.96 134.6,-112.9 172.26,-151.3 121.93,-124.29 192.57,-177.67 307.42,-339.68 60.91,-85.92 111.15,-188.32 144.11,-285.96 50.68,-150.03 57.69,-209.71 29.46,-368.22 88.37,-4.06 186.84,-7.64 268.99,25.73 216.33,87.86 324.78,356.35 243.89,594.07 -46.52,136.66 -162.17,250.98 -300.27,293.36 -75.83,23.29 -264.4,6.75 -360.24,10.95 -21.87,0.97 -28.34,14.67 -42.79,28.54 -24.31,23.23 -52.71,46.66 -78.72,70.11 31.9,5.47 317.92,0.28 375.47,0.03 125.66,-0.61 199.38,-10.92 310.53,59.55 168.14,106.59 262.98,306.58 225.25,514.43 -33.82,186.12 -175.9,353.79 -363.82,390.56 -74.17,14.51 -707.42,-3.11 -750.49,6.89l-0.61 96.12c30.34,5.61 664.68,1.03 714.34,1.11 61.3,0.11 206.05,-61.69 263.71,-90.7 83.28,-41.93 143.72,-93.23 198.77,-161.78 125.16,-155.75 143.63,-369.83 66.25,-552.87 -28.84,-68.22 -100.37,-164.14 -157.39,-203.24 -72.28,-49.55 -87.84,-65.77 -173.37,-97.23 -20.76,-7.67 -50.41,-11.09 -67.36,-22.73 254.15,-88.7 409.84,-405.56 297.94,-682.74 -49.66,-123.02 -137.38,-214.33 -250.51,-277.79 -146.14,-82.03 -289.21,-80.08 -452.91,-78.78 -27.23,-30.34 -45.74,-47.6 -87.75,-60.74 -32.07,-10.03 -98.2,-32.43 -119.96,2.03z"/>
   <path class="fil0" d="M75.53 153.47l561.7 0.14 1.25 1049.63c13.06,-4.92 86.67,-75.42 99.4,-91.09l-0.83 -958.82 540.58 -0.11c-11.53,-32.32 -49.05,-66.64 -61.69,-98.9l-1215.94 0.08 75.53 99.06z"/>
   <path class="fil0" d="M705.89 1978.63c-178.87,36.6 -129.91,305.25 50.6,272.99 73.22,-13.06 125.24,-86.7 110.51,-161.31 -14.64,-74.17 -84.09,-127.46 -161.11,-111.68z"/>
   <path class="fil0" d="M1940.78 2494.76l48.66 0.97 1.39 142.94 29.26 2.64 0.56 -144.83 48.74 -1.11 2.7 -22.62c14.14,18.48 29.82,49.35 42.04,70.64 31.4,54.83 16.34,37.85 22.17,97.01l28.09 0.97c5.72,-60.88 -9,-42.96 22.31,-98.2 13.73,-24.2 29.26,-49.41 42.1,-73.83l-34.26 -1.92 -43.68 81.11 -46.29 -81.22 -163.67 -0.08 -0.11 27.54z"/>
   <path class="fil0" d="M1326.17 2567.84c22.56,-2.31 50.82,-5.75 70.14,10.53l-3.22 27.93c-18.2,12.89 -44.99,8.11 -67.69,8.28l0.78 -46.74zm0.61 -73.11c19.98,-1.36 67,-8.09 67.02,22.51 0.06,30.23 -47.71,23.73 -68.75,21.04l1.72 -43.54zm74.94 59.55c23.26,-21.92 35.6,-57.97 1.75,-78.44 -21.26,-12.84 -81.36,-9.06 -107.84,-8.61l0.22 174.26c27.93,0.42 92.64,5.75 113.49,-11.28 29.46,-24.15 20.92,-57.74 -7.61,-75.92z"/>
   <path class="fil0" d="M642.51 2570.48c-18.01,-91.76 98.92,-103.29 113.49,-32.6 18.56,90.14 -99.2,105.37 -113.49,32.6zm-32.68 -4.11c11.34,111.93 192.71,104.15 178.87,-24.62 -12.17,-113.32 -191.62,-101.09 -178.87,24.62z"/>
   <path class="fil0" d="M1489.31 2495.01l91.7 -0.94 0.17 -24.54c-22.12,-5.92 -94.92,-2.61 -122.38,-2.39l0.14 174.51 122.27 -1.11 -1.25 -26.54 -90.89 -0.03 0.67 -46.77 87.61 -2.56 -0.89 -25.04 -87.89 -1.47 0.75 -43.13z"/>
   <path class="fil0" d="M991.05 2507.65c11.2,10.67 13.34,21.9 18.73,38.21 4.11,12.39 10.59,23.09 10.45,35.1l-54.49 -1.06 25.31 -72.25zm-34.37 100.42l76.19 0.89 13.89 32.34 30.46 -1.31 -67.16 -172.67 -32.46 1.25 -65.05 172.03 28.73 1.22 15.39 -33.76z"/>
   <path class="fil0" d="M1675.68 2507.43c12.98,12.23 30.04,54.1 28.93,73.5l-54.35 -1.14 25.43 -72.36zm-34.85 100.65l76.61 0.44 12.45 32.6 31.96 -1 -68.25 -172.59 -28.59 -0.19c-9.39,13.81 -64.8,156.81 -66.91,173.76l27.93 1.08 14.81 -34.1z"/>
   <path class="fil0" d="M1776.33 2468.36c-5.06,62.8 -17.7,178.26 73.14,176.65 35.35,-0.64 61.44,-19.87 68.61,-54.55 4.75,-23.01 3.92,-98.15 1.31,-123.27l-27.95 1.42c-2.11,32.32 0.25,65.36 -0.67,97.92 -0.86,31.29 -10.42,52.32 -45.52,50.85 -60.1,-2.53 -36.29,-103.34 -40.82,-150.11l-28.09 1.08z"/>
   <path class="fil0" d="M175.29 2495.26l70.39 -1.28 0.28 -24.54c-18.7,-5.03 -72.19,-3.92 -93.39,-0.89l-13.98 99.9c50.82,-0.14 26.37,-19.7 59.02,-16.67 37.99,3.58 35.29,61.24 1.14,65.47 -25.95,3.22 -25.84,-8.5 -36.74,-23.7l-27.45 -0.39c10.23,65.38 90.14,68.22 113.96,18.76 25.84,-53.71 -15.73,-99.12 -78.36,-78.78l5.14 -37.87z"/>
   <path class="fil0" d="M305.69 2494.39l56.1 -0.08c-0.89,20.48 -47.18,74.5 -48.52,147.02l29.18 -0.72c6.95,-31.43 11,-60.66 24.34,-90.5 15.31,-34.29 36.1,-44.52 32.68,-83.06l-124.71 1 1.06 48.6 26.62 -0.47 3.25 -21.79z"/>
   <polygon class="fil0" points="843.64,2640.42 873.51,2639.53 874.56,2495.73 923.5,2495.12 923.47,2466.97 793.4,2468.89 794.54,2495.12 843.83,2496.53 "/>
   <polygon class="fil0" points="525.13,2641.53 553.23,2641.14 553.42,2495.56 603.27,2494.81 603.3,2467.08 472.89,2468.41 474.53,2495.23 523.33,2496.51 "/>
   <polygon class="fil0" points="1098.23,2641.67 1208.57,2640.53 1207.52,2614.1 1128.15,2614.38 1127.38,2467.58 1098.28,2468.08 "/>
  </g>
 </g>
</svg>
